<svg width="288" height="288" fill="none" xmlns="http://www.w3.org/2000/svg"><rect width="288" height="288" rx="60" fill="#fff"/><path fill-rule="evenodd" clip-rule="evenodd" d="M233.998 143.02L190.2 78l-10.837 27.742 25.286 37.278-25.285 38.145 11.743 26.926 42.892-65.071h-.001z" fill="#00B4F0"/><path d="M108.545 211.28c-9.633 0-18.332-1.686-26.099-5.057-7.706-3.432-14.057-8.308-19.054-14.63-4.937-6.381-8.068-13.967-9.392-22.757l25.647-3.793c1.806 7.466 5.538 13.215 11.198 17.249 5.659 4.033 12.101 6.05 19.325 6.05a36.89 36.89 0 0011.74-1.896c3.793-1.265 6.893-3.131 9.301-5.599 2.469-2.469 3.703-5.509 3.703-9.121 0-1.325-.211-2.589-.632-3.793-.362-1.264-.994-2.438-1.897-3.522-.903-1.084-2.197-2.107-3.883-3.07-1.625-.964-3.702-1.836-6.231-2.619l-33.774-9.934c-2.529-.722-5.479-1.746-8.85-3.07-3.311-1.325-6.532-3.221-9.663-5.689-3.13-2.469-5.75-5.72-7.856-9.753-2.047-4.094-3.07-9.242-3.07-15.443 0-8.729 2.197-15.984 6.591-21.763 4.395-5.78 10.265-10.084 17.61-12.914 7.345-2.83 15.472-4.214 24.383-4.154 8.97.12 16.977 1.656 24.021 4.606 7.044 2.95 12.944 7.254 17.7 12.913 4.756 5.6 8.187 12.462 10.295 20.59l-26.55 4.515c-.964-4.214-2.74-7.766-5.328-10.656-2.589-2.89-5.69-5.087-9.302-6.592a30.879 30.879 0 00-11.198-2.439c-3.853-.12-7.495.422-10.927 1.626-3.371 1.144-6.14 2.83-8.308 5.057-2.107 2.228-3.16 4.877-3.16 7.947 0 2.83.872 5.147 2.618 6.954 1.746 1.745 3.944 3.16 6.593 4.244a64.208 64.208 0 008.127 2.709l22.577 6.141c3.371.903 7.104 2.107 11.197 3.612 4.094 1.445 8.008 3.492 11.74 6.141 3.793 2.589 6.894 6.02 9.302 10.295 2.468 4.274 3.702 9.693 3.702 16.255 0 6.983-1.475 13.094-4.425 18.332-2.89 5.177-6.803 9.482-11.739 12.913-4.937 3.372-10.536 5.9-16.797 7.586-6.201 1.686-12.613 2.529-19.235 2.529z" fill="#000"/></svg>